<svg xmlns="http://www.w3.org/2000/svg" viewBox="0 0 512 512">
  <defs>
    <linearGradient id="grad1" x1="0%" y1="0%" x2="100%" y2="100%">
      <stop offset="0%" style="stop-color:#6366f1;stop-opacity:1" />
      <stop offset="100%" style="stop-color:#8b5cf6;stop-opacity:1" />
    </linearGradient>
  </defs>
  
  <!-- Background Circle -->
  <circle cx="256" cy="256" r="256" fill="url(#grad1)"/>
  
  <!-- AI Symbol - Brain/Circuit Design -->
  <g fill="#ffffff" opacity="0.95">
    <!-- Central Node -->
    <circle cx="256" cy="256" r="40"/>
    
    <!-- Top Nodes -->
    <circle cx="256" cy="140" r="25"/>
    <circle cx="190" cy="180" r="20"/>
    <circle cx="322" cy="180" r="20"/>
    
    <!-- Bottom Nodes -->
    <circle cx="256" cy="372" r="25"/>
    <circle cx="190" cy="332" r="20"/>
    <circle cx="322" cy="332" r="20"/>
    
    <!-- Side Nodes -->
    <circle cx="140" cy="256" r="20"/>
    <circle cx="372" cy="256" r="20"/>
    
    <!-- Connecting Lines -->
    <line x1="256" y1="216" x2="256" y2="165" stroke="#ffffff" stroke-width="8" opacity="0.7"/>
    <line x1="256" y1="296" x2="256" y2="347" stroke="#ffffff" stroke-width="8" opacity="0.7"/>
    <line x1="216" y1="256" x2="160" y2="256" stroke="#ffffff" stroke-width="8" opacity="0.7"/>
    <line x1="296" y1="256" x2="352" y2="256" stroke="#ffffff" stroke-width="8" opacity="0.7"/>
    <line x1="230" y1="230" x2="200" y2="200" stroke="#ffffff" stroke-width="8" opacity="0.7"/>
    <line x1="282" y1="230" x2="312" y2="200" stroke="#ffffff" stroke-width="8" opacity="0.7"/>
    <line x1="230" y1="282" x2="200" y2="312" stroke="#ffffff" stroke-width="8" opacity="0.7"/>
    <line x1="282" y1="282" x2="312" y2="312" stroke="#ffffff" stroke-width="8" opacity="0.7"/>
  </g>
  
  <!-- Subtle "AI" text -->
  <text x="256" y="276" font-family="Inter, Arial, sans-serif" font-size="60" font-weight="bold" fill="#ffffff" text-anchor="middle" opacity="0.3">AI</text>
</svg>
